<svg width="24" height="24" viewBox="0 0 24 24" fill="none" xmlns="http://www.w3.org/2000/svg">
<path d="M21.4865 19.9707C20.0043 17.4094 17.6774 15.6123 14.9736 14.8501C16.2882 14.1819 17.3393 13.0904 17.9576 11.7517C18.5759 10.413 18.7254 8.90507 18.3818 7.47105C18.0382 6.03703 17.2217 4.76051 16.0639 3.84732C14.9061 2.93413 13.4745 2.4375 11.9999 2.4375C10.5253 2.4375 9.09368 2.93413 7.93587 3.84732C6.77806 4.76051 5.96155 6.03703 5.61799 7.47105C5.27444 8.90507 5.42386 10.413 6.04217 11.7517C6.66048 13.0904 7.71164 14.1819 9.02615 14.8501C6.3224 15.6113 3.99552 17.4085 2.51333 19.9707C2.47264 20.0347 2.44531 20.1063 2.43299 20.1812C2.42068 20.256 2.42364 20.3326 2.44169 20.4063C2.45974 20.48 2.4925 20.5492 2.53802 20.6099C2.58353 20.6706 2.64086 20.7215 2.70654 20.7594C2.77222 20.7974 2.8449 20.8217 2.92021 20.8309C2.99552 20.84 3.0719 20.8338 3.14476 20.8127C3.21762 20.7915 3.28545 20.7559 3.34417 20.7079C3.4029 20.6598 3.45129 20.6004 3.48646 20.5332C5.2874 17.4216 8.46927 15.5644 11.9999 15.5644C15.5305 15.5644 18.7124 17.4216 20.5133 20.5332C20.5485 20.6004 20.5969 20.6598 20.6556 20.7079C20.7143 20.7559 20.7822 20.7915 20.855 20.8127C20.9279 20.8338 21.0043 20.84 21.0796 20.8309C21.1549 20.8217 21.2276 20.7974 21.2933 20.7594C21.3589 20.7215 21.4163 20.6706 21.4618 20.6099C21.5073 20.5492 21.5401 20.48 21.5581 20.4063C21.5762 20.3326 21.5791 20.256 21.5668 20.1812C21.5545 20.1063 21.5272 20.0347 21.4865 19.9707ZM6.5624 9.00194C6.5624 7.9265 6.8813 6.87522 7.47878 5.98102C8.07626 5.08683 8.92548 4.38989 9.91905 3.97834C10.9126 3.56679 12.0059 3.45911 13.0607 3.66892C14.1155 3.87872 15.0843 4.3966 15.8448 5.15704C16.6052 5.91749 17.1231 6.88636 17.3329 7.94113C17.5427 8.9959 17.435 10.0892 17.0235 11.0828C16.6119 12.0764 15.915 12.9256 15.0208 13.5231C14.1266 14.1205 13.0753 14.4394 11.9999 14.4394C10.5583 14.4377 9.17627 13.8643 8.15692 12.8449C7.13757 11.8256 6.56413 10.4435 6.5624 9.00194Z" fill="#68B04D"/>
</svg>
