<svg width="25" height="26" viewBox="0 0 25 26" fill="none" xmlns="http://www.w3.org/2000/svg">
<path opacity="0.4" d="M17.1854 0.380859H21.1034C22.726 0.380859 24.0407 1.83571 24.0407 3.63117V7.96653C24.0407 9.76198 22.726 11.2168 21.1034 11.2168H17.1854C15.5628 11.2168 14.248 9.76198 14.248 7.96653V3.63117C14.248 1.83571 15.5628 0.380859 17.1854 0.380859Z" fill="#228000"/>
<path d="M7.75376 14.9383C9.37635 14.9383 10.6911 16.3931 10.6911 18.1886V22.5239C10.6911 24.3182 9.37635 25.7742 7.75376 25.7742H3.8358C2.21322 25.7742 0.898438 24.3182 0.898438 22.5239V18.1886C0.898438 16.3931 2.21322 14.9383 3.8358 14.9383H7.75376ZM21.1034 14.9383C22.726 14.9383 24.0408 16.3931 24.0408 18.1886V22.5239C24.0408 24.3182 22.726 25.7742 21.1034 25.7742H17.1854C15.5628 25.7742 14.2481 24.3182 14.2481 22.5239V18.1886C14.2481 16.3931 15.5628 14.9383 17.1854 14.9383H21.1034ZM7.75376 0.380859C9.37635 0.380859 10.6911 1.83571 10.6911 3.63117V7.96653C10.6911 9.76198 9.37635 11.2168 7.75376 11.2168H3.8358C2.21322 11.2168 0.898438 9.76198 0.898438 7.96653V3.63117C0.898438 1.83571 2.21322 0.380859 3.8358 0.380859H7.75376Z" fill="#228000"/>
</svg>
