<svg width="24" height="24" viewBox="0 0 24 24" fill="none" xmlns="http://www.w3.org/2000/svg">
<path d="M10.9921 14.8034C11.9973 14.1342 12.7605 13.1593 13.1687 12.0228C13.577 10.8863 13.6087 9.64865 13.2591 8.49278C12.9095 7.33691 12.1973 6.32422 11.2276 5.60447C10.258 4.88471 9.0825 4.49609 7.87493 4.49609C6.66735 4.49609 5.49184 4.88471 4.52221 5.60447C3.55258 6.32422 2.84032 7.33691 2.49076 8.49278C2.1412 9.64865 2.17288 10.8863 2.58114 12.0228C2.9894 13.1593 3.75255 14.1342 4.75774 14.8034C2.93945 15.4735 1.38659 16.7137 0.330862 18.3387C0.275377 18.4212 0.236837 18.5138 0.217482 18.6113C0.198127 18.7088 0.198344 18.8092 0.218119 18.9066C0.237895 19.004 0.276835 19.0965 0.332676 19.1787C0.388516 19.2609 0.460144 19.3313 0.543396 19.3856C0.626647 19.4399 0.719861 19.4771 0.81762 19.495C0.915378 19.513 1.01573 19.5113 1.11285 19.4902C1.20996 19.469 1.3019 19.4287 1.38332 19.3717C1.46474 19.3147 1.53401 19.2421 1.58711 19.1581C2.2681 18.1107 3.19995 17.25 4.29802 16.6542C5.3961 16.0583 6.62562 15.7463 7.87493 15.7463C9.12423 15.7463 10.3538 16.0583 11.4518 16.6542C12.5499 17.25 13.4817 18.1107 14.1627 19.1581C14.2727 19.3216 14.4427 19.4352 14.6358 19.4744C14.8289 19.5136 15.0297 19.4752 15.1947 19.3676C15.3598 19.2599 15.4758 19.0916 15.5178 18.8991C15.5598 18.7066 15.5243 18.5053 15.419 18.3387C14.3633 16.7137 12.8104 15.4735 10.9921 14.8034ZM3.74992 10.1234C3.74992 9.30753 3.99185 8.51 4.44511 7.83165C4.89837 7.1533 5.54261 6.62458 6.29636 6.31237C7.0501 6.00016 7.8795 5.91847 8.67967 6.07764C9.47985 6.2368 10.2148 6.62967 10.7917 7.20656C11.3686 7.78345 11.7615 8.51846 11.9207 9.31863C12.0798 10.1188 11.9981 10.9482 11.6859 11.7019C11.3737 12.4557 10.845 13.0999 10.1667 13.5532C9.4883 14.0064 8.69077 14.2484 7.87493 14.2484C6.78129 14.2471 5.7328 13.8121 4.95948 13.0388C4.18616 12.2655 3.75117 11.217 3.74992 10.1234ZM23.4506 19.3765C23.284 19.4851 23.081 19.5232 22.8864 19.4822C22.6918 19.4412 22.5214 19.3246 22.4127 19.1581C21.7326 18.11 20.8008 17.249 19.7025 16.6534C18.6042 16.0578 17.3743 15.7467 16.1249 15.7484C15.926 15.7484 15.7352 15.6694 15.5946 15.5287C15.4539 15.3881 15.3749 15.1973 15.3749 14.9984C15.3749 14.7995 15.4539 14.6087 15.5946 14.468C15.7352 14.3274 15.926 14.2484 16.1249 14.2484C16.7324 14.2478 17.3322 14.1131 17.8816 13.8538C18.431 13.5945 18.9163 13.2171 19.3029 12.7485C19.6895 12.28 19.9678 11.7318 20.118 11.1432C20.2682 10.5546 20.2865 9.94003 20.1716 9.34351C20.0568 8.747 19.8116 8.18321 19.4536 7.69243C19.0956 7.20166 18.6337 6.79601 18.1007 6.50447C17.5678 6.21293 16.977 6.0427 16.3707 6.00594C15.7643 5.96918 15.1573 6.06679 14.5931 6.29181C14.5011 6.33158 14.402 6.35251 14.3018 6.35336C14.2016 6.35421 14.1022 6.33496 14.0095 6.29674C13.9169 6.25853 13.8328 6.20214 13.7623 6.13089C13.6918 6.05964 13.6363 5.97499 13.5991 5.88193C13.5619 5.78887 13.5437 5.68929 13.5456 5.58908C13.5475 5.48887 13.5695 5.39006 13.6102 5.29849C13.651 5.20691 13.7097 5.12444 13.7828 5.05593C13.856 4.98742 13.9421 4.93427 14.0362 4.89963C15.3275 4.38461 16.7639 4.36608 18.0681 4.8476C19.3723 5.32912 20.452 6.27658 21.0989 7.5072C21.7458 8.73782 21.914 10.1644 21.5711 11.5117C21.2283 12.8591 20.3986 14.0317 19.2421 14.8034C21.0604 15.4735 22.6133 16.7137 23.669 18.3387C23.7776 18.5053 23.8156 18.7082 23.7747 18.9028C23.7337 19.0974 23.6171 19.2678 23.4506 19.3765Z" fill="#68B04D"/>
</svg>
