<svg width="22" height="22" viewBox="0 0 22 22" fill="none" xmlns="http://www.w3.org/2000/svg">
<path d="M19.2501 8.60156C20.007 9.03738 20.6206 9.684 21.0163 10.4626C21.4119 11.2412 21.5725 12.118 21.4783 12.9863C21.3842 13.8546 21.0394 14.6766 20.4861 15.3523C19.9328 16.028 19.1948 16.5281 18.3621 16.7916C18.0678 18.127 17.3263 19.322 16.2603 20.1785C15.1942 21.035 13.8676 21.5018 12.5001 21.5016H10.2501C10.0512 21.5016 9.86045 21.4225 9.7198 21.2819C9.57915 21.1412 9.50013 20.9505 9.50013 20.7516C9.50013 20.5527 9.57915 20.3619 9.7198 20.2212C9.86045 20.0806 10.0512 20.0016 10.2501 20.0016H12.5001C13.4311 20.0018 14.3392 19.7135 15.0994 19.1762C15.8597 18.6389 16.4346 17.8792 16.7451 17.0016H16.2501C16.0512 17.0016 15.8604 16.9225 15.7198 16.7819C15.5791 16.6412 15.5001 16.4505 15.5001 16.2516V8.75156C15.5001 8.55265 15.5791 8.36189 15.7198 8.22123C15.8604 8.08058 16.0512 8.00156 16.2501 8.00156H17.0001C17.2431 8.00156 17.4816 8.02106 17.7156 8.05856C17.5468 6.3949 16.7664 4.85314 15.5257 3.732C14.285 2.61085 12.6723 1.99015 11.0001 1.99015C9.32792 1.99015 7.71524 2.61085 6.47455 3.732C5.23385 4.85314 4.45348 6.3949 4.28463 8.05856C4.52124 8.02064 4.7605 8.00158 5.00013 8.00156H5.75013C5.94904 8.00156 6.13981 8.08058 6.28046 8.22123C6.42111 8.36189 6.50013 8.55265 6.50013 8.75156V16.2516C6.50013 16.4505 6.42111 16.6412 6.28046 16.7819C6.13981 16.9225 5.94904 17.0016 5.75013 17.0016H5.00013C4.0086 17.0027 3.04447 16.6763 2.25753 16.0731C1.47058 15.4699 0.904897 14.6236 0.648353 13.6659C0.391808 12.7081 0.458773 11.6924 0.838842 10.7766C1.21891 9.86085 1.8908 9.09622 2.75013 8.60156C2.75013 6.41353 3.61932 4.31511 5.1665 2.76793C6.71367 1.22076 8.81209 0.351563 11.0001 0.351562C13.1882 0.351563 15.2866 1.22076 16.8338 2.76793C18.3809 4.31511 19.2501 6.41353 19.2501 8.60156ZM5.00013 9.50156C4.20448 9.50156 3.44142 9.81763 2.87881 10.3802C2.3162 10.9429 2.00013 11.7059 2.00013 12.5016C2.00013 13.2972 2.3162 14.0603 2.87881 14.6229C3.44142 15.1855 4.20448 15.5016 5.00013 15.5016V9.50156ZM20.0001 12.5016C20.0001 11.7059 19.6841 10.9429 19.1214 10.3802C18.5588 9.81763 17.7958 9.50156 17.0001 9.50156V15.5016C17.7958 15.5016 18.5588 15.1855 19.1214 14.6229C19.6841 14.0603 20.0001 13.2972 20.0001 12.5016Z" fill="#68B04D"/>
</svg>
