<svg width="22" height="23" viewBox="0 0 22 23" fill="none" xmlns="http://www.w3.org/2000/svg">
<path d="M6.13133 19.3544L0.600126 12.5092V10.7936H21.4001V12.5092L15.8065 19.3544H6.13133ZM5.38093 3.07337C5.38093 2.84587 5.29664 2.62768 5.14661 2.46682C4.99658 2.30595 4.7931 2.21557 4.58093 2.21557C4.36875 2.21557 4.16527 2.30595 4.01524 2.46682C3.86521 2.62768 3.78093 2.84587 3.78093 3.07337V4.04612L0.905726 4.67746C0.851421 4.68473 0.799085 4.70388 0.751957 4.73371C0.704829 4.76354 0.663911 4.80342 0.631735 4.85089C0.599559 4.89836 0.57681 4.9524 0.564894 5.00967C0.552979 5.06694 0.55215 5.12623 0.562461 5.18386C0.572772 5.24149 0.594002 5.29624 0.624837 5.34472C0.655673 5.3932 0.695459 5.43438 0.741733 5.46571C0.788006 5.49704 0.839784 5.51785 0.893861 5.52687C0.947939 5.53588 1.00317 5.5329 1.05613 5.51811L3.78093 5.04288V6.01391L0.980926 6.07568C0.874839 6.07568 0.773098 6.12086 0.698083 6.2013C0.623068 6.28173 0.580926 6.39082 0.580926 6.50458C0.580926 6.61833 0.623068 6.72742 0.698083 6.80786C0.773098 6.88829 0.874839 6.93348 0.980926 6.93348L3.78093 6.99524V9.07455H5.38093V3.07337ZM20.5809 5.64678L8.58093 6.09798V3.9226L20.7313 2.08004C20.9365 2.03375 21.1165 1.90297 21.2326 1.71582C21.3488 1.52867 21.3918 1.30011 21.3523 1.07932C21.3129 0.858537 21.1942 0.663166 21.0218 0.535245C20.8495 0.407325 20.6371 0.357079 20.4305 0.395317L8.56813 2.99617C8.54979 2.77791 8.45364 2.57565 8.29968 2.43152C8.14573 2.28738 7.94586 2.21249 7.74169 2.22244C7.53752 2.23239 7.34481 2.32642 7.20369 2.48493C7.06257 2.64345 6.98392 2.85423 6.98413 3.07337V3.46453L6.19373 3.63609V4.23998L6.98253 4.10273V6.15631L6.19373 6.17347V6.96436L20.5809 7.36238C20.7931 7.36238 20.9966 7.272 21.1466 7.11113C21.2966 6.95026 21.3809 6.73208 21.3809 6.50458C21.3809 6.27707 21.2966 6.05889 21.1466 5.89802C20.9966 5.73715 20.7931 5.64678 20.5809 5.64678ZM15.0001 21.0872H7.00013V22.0754H15.0001V21.0872Z" fill="#68B04D"/>
</svg>
