<svg width="24" height="27" viewBox="0 0 24 27" fill="none" xmlns="http://www.w3.org/2000/svg">
<path d="M19.0003 19.8963H5.00028M12.0003 19.8963V13.4627M15.0003 19.8963V15.6072M9.00028 19.8963V15.6072M19.0003 24.1853V12.7443C19.3716 12.5992 19.7125 12.3769 20.0035 12.0902C20.2945 11.8034 20.5298 11.4578 20.6959 11.0733C20.862 10.6888 20.9556 10.2728 20.9713 9.84941C20.9871 9.42598 20.9247 9.00338 20.7878 8.60587C20.6508 8.20836 20.4419 7.84378 20.1732 7.53305C19.9045 7.22232 19.5812 6.97156 19.2218 6.79518C18.8625 6.6188 18.4742 6.52026 18.0792 6.50522C17.6842 6.49019 17.2904 6.55895 16.9203 6.70756C16.5503 4.74963 14.4603 2.74023 12.0003 2.74023C9.54028 2.74023 7.45028 4.74963 7.08028 6.70756C6.33369 6.41181 5.50812 6.44618 4.78516 6.80311C4.06221 7.16003 3.5011 7.81028 3.22528 8.61081C2.94945 9.41134 2.9815 10.2966 3.31438 11.0717C3.64726 11.8469 4.25369 12.4486 5.00028 12.7443V24.1853H19.0003Z" stroke="#68B04D" stroke-width="2"/>
</svg>
